<?xml version="1.0" encoding="utf-8" standalone="no"?>
<!DOCTYPE svg PUBLIC "-//W3C//DTD SVG 1.1//EN"
  "http://www.w3.org/Graphics/SVG/1.1/DTD/svg11.dtd">
<!-- Created with matplotlib (http://matplotlib.org/) -->
<svg height="441pt" version="1.1" viewBox="0 0 585 441" width="585pt" xmlns="http://www.w3.org/2000/svg" xmlns:xlink="http://www.w3.org/1999/xlink">
 <defs>
  <style type="text/css">
*{stroke-linecap:butt;stroke-linejoin:round;}
  </style>
 </defs>
 <g id="figure_1">
  <g id="patch_1">
   <path d="
M0 441
L585 441
L585 0
L0 0
z
" style="fill:#ffffff;"/>
  </g>
  <g id="axes_1">
   <g id="patch_2">
    <path d="
M73.125 396.9
L526.5 396.9
L526.5 44.1
L73.125 44.1
z
" style="fill:#ffffff;"/>
   </g>
   <g id="line2d_1">
    <path clip-path="url(#p5873ec822d)" d="
M73.125 367.5
L73.4671 367.5
L73.4678 73.5
L73.5779 367.5
L85.5054 367.5
L85.5061 73.5
L85.6163 367.5
L85.9919 367.5
L85.9951 73.5
L86.1027 367.5
L86.8011 367.5
L86.8017 73.5
L86.9119 367.5
L88.4414 367.5
L88.4421 73.5
L88.5522 367.5
L92.0416 367.5
L92.0423 73.5
L92.1525 367.5
L92.6537 367.5
L92.6827 73.5
L92.7645 367.5
L93.2278 367.5
L93.2284 73.5
L93.3386 367.5
L93.6092 367.5
L93.6175 73.5
L93.72 367.5
L93.7728 367.5
L93.7818 73.5
L93.8836 367.5
L94.5743 367.5
L94.5749 73.5
L94.6851 367.5
L99.6899 367.5
L99.6911 73.5
L99.8007 367.5
L99.8097 367.5
L99.8116 73.5
L99.9205 367.5
L101.484 367.5
L101.564 73.5
L101.594 367.5
L101.601 367.5
L101.707 73.5
L101.712 367.5
L101.847 367.5
L101.907 73.5
L101.958 367.5
L102.442 367.5
L102.47 73.5
L102.553 367.5
L102.853 367.5
L102.892 73.5
L102.964 367.5
L103.783 367.5
L103.784 73.5
L103.894 367.5
L104.019 367.5
L104.036 73.5
L104.13 367.5
L104.223 367.5
L104.224 73.5
L104.334 367.5
L105.477 367.5
L105.477 73.5
L105.588 367.5
L106.673 367.5
L106.674 73.5
L106.784 367.5
L107.544 367.5
L107.545 73.5
L107.655 367.5
L109.571 367.5
L109.59 73.5
L109.682 367.5
L109.797 367.5
L109.797 73.5
L109.907 367.5
L110.391 367.5
L110.436 73.5
L110.502 367.5
L110.514 367.5
L110.515 73.5
L110.625 367.5
L112.541 367.5
L112.541 73.5
L112.651 367.5
L113.182 367.5
L113.184 73.5
L113.293 367.5
L114.745 367.5
L114.745 73.5
L114.856 367.5
L116.532 367.5
L116.545 73.5
L116.643 367.5
L117.409 367.5
L117.503 73.5
L117.52 367.5
L119.286 367.5
L119.286 73.5
L119.396 367.5
L120.229 367.5
L120.231 73.5
L120.34 367.5
L120.369 367.5
L120.37 73.5
L120.48 367.5
L120.682 367.5
L120.725 73.5
L120.793 367.5
L120.934 367.5
L120.934 73.5
L121.044 367.5
L121.336 367.5
L121.336 73.5
L121.446 367.5
L121.99 367.5
L122.085 73.5
L122.101 367.5
L122.32 367.5
L122.321 73.5
L122.431 367.5
L122.463 367.5
L122.464 73.5
L122.574 367.5
L122.696 367.5
L122.7 73.5
L122.807 367.5
L123.129 367.5
L123.129 73.5
L123.239 367.5
L123.495 367.5
L123.496 73.5
L123.606 367.5
L124.892 367.5
L124.959 73.5
L125.003 367.5
L125.177 367.5
L125.178 73.5
L125.288 367.5
L125.368 367.5
L125.369 73.5
L125.479 367.5
L125.91 367.5
L125.911 73.5
L126.021 367.5
L126.759 367.5
L126.858 73.5
L126.869 367.5
L127.015 367.5
L127.016 73.5
L127.126 367.5
L127.439 367.5
L127.44 73.5
L127.55 367.5
L127.622 367.5
L127.623 73.5
L127.733 367.5
L127.739 367.5
L127.781 73.5
L127.85 367.5
L127.968 367.5
L127.985 73.5
L128.079 367.5
L130.155 367.5
L130.155 73.5
L130.265 367.5
L133.664 367.5
L133.665 73.5
L133.775 367.5
L133.978 367.5
L133.981 73.5
L134.088 367.5
L134.98 367.5
L134.981 73.5
L135.09 367.5
L136.401 367.5
L136.405 73.5
L136.512 367.5
L136.702 367.5
L136.703 73.5
L136.813 367.5
L138.401 367.5
L138.402 73.5
L138.512 367.5
L139.658 367.5
L139.658 73.5
L139.768 367.5
L141.217 367.5
L141.241 73.5
L141.328 367.5
L141.495 367.5
L141.512 73.5
L141.606 367.5
L146.931 367.5
L146.933 73.5
L147.042 367.5
L149.578 367.5
L149.589 73.5
L149.689 367.5
L149.745 367.5
L149.809 73.5
L149.856 367.5
L149.876 367.5
L149.877 73.5
L149.987 367.5
L150.056 367.5
L150.059 73.5
L150.167 367.5
L150.6 367.5
L150.601 73.5
L150.711 367.5
L151.359 367.5
L151.36 73.5
L151.47 367.5
L152.523 367.5
L152.524 73.5
L152.634 367.5
L153.111 367.5
L153.112 73.5
L153.222 367.5
L153.562 367.5
L153.563 73.5
L153.673 367.5
L153.756 367.5
L153.813 73.5
L153.867 367.5
L153.909 367.5
L153.91 73.5
L154.02 367.5
L154.138 367.5
L154.139 73.5
L154.249 367.5
L154.758 367.5
L154.759 73.5
L154.869 367.5
L155.467 367.5
L155.468 73.5
L155.578 367.5
L155.876 367.5
L155.877 73.5
L155.987 367.5
L156.453 367.5
L156.453 73.5
L156.563 367.5
L156.876 367.5
L156.879 73.5
L156.987 367.5
L160.165 367.5
L160.166 73.5
L160.276 367.5
L162.149 367.5
L162.155 73.5
L162.26 367.5
L163.422 367.5
L163.423 73.5
L163.533 367.5
L166.169 367.5
L166.17 73.5
L166.28 367.5
L166.349 367.5
L166.35 73.5
L166.46 367.5
L167.791 367.5
L167.796 73.5
L167.901 367.5
L167.991 367.5
L167.992 73.5
L168.102 367.5
L168.327 367.5
L168.328 73.5
L168.438 367.5
L169.063 367.5
L169.064 73.5
L169.174 367.5
L169.437 367.5
L169.439 73.5
L169.548 367.5
L169.924 367.5
L169.932 73.5
L170.035 367.5
L170.641 367.5
L170.642 73.5
L170.752 367.5
L171.926 367.5
L171.928 73.5
L172.037 367.5
L172.67 367.5
L172.675 73.5
L172.781 367.5
L174.043 367.5
L174.044 73.5
L174.154 367.5
L175.176 367.5
L175.177 73.5
L175.287 367.5
L176.329 367.5
L176.33 73.5
L176.44 367.5
L176.979 367.5
L177.052 73.5
L177.09 367.5
L177.41 367.5
L177.412 73.5
L177.521 367.5
L177.8 367.5
L177.901 73.5
L177.911 367.5
L177.977 367.5
L177.978 73.5
L178.088 367.5
L178.612 367.5
L178.618 73.5
L178.723 367.5
L178.866 367.5
L178.866 73.5
L178.977 367.5
L179.544 367.5
L179.645 73.5
L179.655 367.5
L180.37 367.5
L180.371 73.5
L180.481 367.5
L181.466 367.5
L181.467 73.5
L181.577 367.5
L182.673 367.5
L182.689 73.5
L182.784 367.5
L186.175 367.5
L186.176 73.5
L186.286 367.5
L187.83 367.5
L187.832 73.5
L187.94 367.5
L188.455 367.5
L188.455 73.5
L188.565 367.5
L188.604 367.5
L188.605 73.5
L188.715 367.5
L191.995 367.5
L191.996 73.5
L192.106 367.5
L194.343 367.5
L194.343 73.5
L194.453 367.5
L195.475 367.5
L195.475 73.5
L195.585 367.5
L195.86 367.5
L195.861 73.5
L195.971 367.5
L198.121 367.5
L198.122 73.5
L198.232 367.5
L198.483 367.5
L198.483 73.5
L198.594 367.5
L199.323 367.5
L199.324 73.5
L199.434 367.5
L199.819 367.5
L199.82 73.5
L199.93 367.5
L201.369 367.5
L201.37 73.5
L201.48 367.5
L201.491 367.5
L201.492 73.5
L201.602 367.5
L204.74 367.5
L204.741 73.5
L204.851 367.5
L204.93 367.5
L204.931 73.5
L205.041 367.5
L207.767 367.5
L207.768 73.5
L207.878 367.5
L210.508 367.5
L210.509 73.5
L210.619 367.5
L212.67 367.5
L212.671 73.5
L212.781 367.5
L213.04 367.5
L213.043 73.5
L213.15 367.5
L214.072 367.5
L214.072 73.5
L214.183 367.5
L214.23 367.5
L214.23 73.5
L214.34 367.5
L214.641 367.5
L214.642 73.5
L214.752 367.5
L215.09 367.5
L215.096 73.5
L215.201 367.5
L219.85 367.5
L219.85 73.5
L219.96 367.5
L221.634 367.5
L221.635 73.5
L221.745 367.5
L223.551 367.5
L223.552 73.5
L223.662 367.5
L224.636 367.5
L224.637 73.5
L224.747 367.5
L231.162 367.5
L231.166 73.5
L231.273 367.5
L233.63 367.5
L233.631 73.5
L233.741 367.5
L238.146 367.5
L238.146 73.5
L238.257 367.5
L241.766 367.5
L241.769 73.5
L241.877 367.5
L242.523 367.5
L242.524 73.5
L242.634 367.5
L243.59 367.5
L243.591 73.5
L243.701 367.5
L246.525 367.5
L246.525 73.5
L246.635 367.5
L247.235 367.5
L247.256 73.5
L247.345 367.5
L248.546 367.5
L248.546 73.5
L248.657 367.5
L250.102 367.5
L250.103 73.5
L250.213 367.5
L252.229 367.5
L252.23 73.5
L252.34 367.5
L252.871 367.5
L252.873 73.5
L252.982 367.5
L254.983 367.5
L254.984 73.5
L255.094 367.5
L256.039 367.5
L256.04 73.5
L256.15 367.5
L256.675 367.5
L256.676 73.5
L256.786 367.5
L258.186 367.5
L258.221 73.5
L258.297 367.5
L261.406 367.5
L261.407 73.5
L261.517 367.5
L261.578 367.5
L261.579 73.5
L261.689 367.5
L261.711 367.5
L261.712 73.5
L261.822 367.5
L262.577 367.5
L262.578 73.5
L262.688 367.5
L263.021 367.5
L263.022 73.5
L263.132 367.5
L263.447 367.5
L263.447 73.5
L263.557 367.5
L263.982 367.5
L263.983 73.5
L264.093 367.5
L265.604 367.5
L265.605 73.5
L265.715 367.5
L266.303 367.5
L266.304 73.5
L266.414 367.5
L269.431 367.5
L269.432 73.5
L269.542 367.5
L269.864 367.5
L269.867 73.5
L269.974 367.5
L271.959 367.5
L271.965 73.5
L272.07 367.5
L272.493 367.5
L272.494 73.5
L272.604 367.5
L274.595 367.5
L274.614 73.5
L274.705 367.5
L275.303 367.5
L275.346 73.5
L275.413 367.5
L276.013 367.5
L276.019 73.5
L276.124 367.5
L277.179 367.5
L277.268 73.5
L277.29 367.5
L277.585 367.5
L277.585 73.5
L277.695 367.5
L278.991 367.5
L278.992 73.5
L279.102 367.5
L280.53 367.5
L280.577 73.5
L280.641 367.5
L283.036 367.5
L283.036 73.5
L283.147 367.5
L288.37 367.5
L288.37 73.5
L288.481 367.5
L288.993 367.5
L288.994 73.5
L289.104 367.5
L295.239 367.5
L295.24 73.5
L295.35 367.5
L298.215 367.5
L298.216 73.5
L298.326 367.5
L298.783 367.5
L298.783 73.5
L298.893 367.5
L313.464 367.5
L313.465 73.5
L313.575 367.5
L313.834 367.5
L313.835 73.5
L313.945 367.5
L321.986 367.5
L321.987 73.5
L322.097 367.5
L323.221 367.5
L323.222 73.5
L323.332 367.5
L325.604 367.5
L325.605 73.5
L325.715 367.5
L326.271 367.5
L326.272 73.5
L326.382 367.5
L327.693 367.5
L327.694 73.5
L327.804 367.5
L328.134 367.5
L328.135 73.5
L328.245 367.5
L328.864 367.5
L328.865 73.5
L328.975 367.5
L330.494 367.5
L330.574 73.5
L330.605 367.5
L333.822 367.5
L333.822 73.5
L333.932 367.5
L336.055 367.5
L336.149 73.5
L336.166 367.5
L336.633 367.5
L336.634 73.5
L336.744 367.5
L338.381 367.5
L338.382 73.5
L338.491 367.5
L339.391 367.5
L339.393 73.5
L339.502 367.5
L339.545 367.5
L339.545 73.5
L339.656 367.5
L339.822 367.5
L339.822 73.5
L339.933 367.5
L341.117 367.5
L341.158 73.5
L341.228 367.5
L341.498 367.5
L341.499 73.5
L341.609 367.5
L341.828 367.5
L341.833 73.5
L341.939 367.5
L342.109 367.5
L342.11 73.5
L342.22 367.5
L345.37 367.5
L345.372 73.5
L345.481 367.5
L346.404 367.5
L346.41 73.5
L346.515 367.5
L348.299 367.5
L348.3 73.5
L348.41 367.5
L349.615 367.5
L349.632 73.5
L349.726 367.5
L349.758 367.5
L349.807 73.5
L349.869 367.5
L350.091 367.5
L350.114 73.5
L350.202 367.5
L350.293 367.5
L350.328 73.5
L350.403 367.5
L350.751 367.5
L350.751 73.5
L350.862 367.5
L351.445 367.5
L351.445 73.5
L351.555 367.5
L352.259 367.5
L352.261 73.5
L352.37 367.5
L354.421 367.5
L354.422 73.5
L354.532 367.5
L354.603 367.5
L354.624 73.5
L354.714 367.5
L355.382 367.5
L355.422 73.5
L355.493 367.5
L356.022 367.5
L356.023 73.5
L356.133 367.5
L356.347 367.5
L356.348 73.5
L356.458 367.5
L356.668 367.5
L356.701 73.5
L356.779 367.5
L356.88 367.5
L356.884 73.5
L356.991 367.5
L357.022 367.5
L357.023 73.5
L357.133 367.5
L357.515 367.5
L357.516 73.5
L357.626 367.5
L358.089 367.5
L358.09 73.5
L358.2 367.5
L358.591 367.5
L358.592 73.5
L358.702 367.5
L358.718 367.5
L358.731 73.5
L358.829 367.5
L359.125 367.5
L359.126 73.5
L359.236 367.5
L359.855 367.5
L359.856 73.5
L359.966 367.5
L361.741 367.5
L361.743 73.5
L361.852 367.5
L363.337 367.5
L363.34 73.5
L363.448 367.5
L363.83 367.5
L363.83 73.5
L363.94 367.5
L364.46 367.5
L364.46 73.5
L364.57 367.5
L365.966 367.5
L365.967 73.5
L366.077 367.5
L367.184 367.5
L367.185 73.5
L367.295 367.5
L369.523 367.5
L369.526 73.5
L369.634 367.5
L369.852 367.5
L369.853 73.5
L369.963 367.5
L370.806 367.5
L370.884 73.5
L370.917 367.5
L372.26 367.5
L372.261 73.5
L372.371 367.5
L373.717 367.5
L373.718 73.5
L373.828 367.5
L375.811 367.5
L375.817 73.5
L375.921 367.5
L376.635 367.5
L376.635 73.5
L376.745 367.5
L377.384 367.5
L377.385 73.5
L377.495 367.5
L377.817 367.5
L377.817 73.5
L377.928 367.5
L377.959 367.5
L378.067 73.5
L378.069 367.5
L378.457 367.5
L378.457 73.5
L378.567 367.5
L379.1 367.5
L379.1 73.5
L379.21 367.5
L379.836 367.5
L379.837 73.5
L379.947 367.5
L379.948 367.5
L380.032 73.5
L380.059 367.5
L380.063 367.5
L380.065 73.5
L380.174 367.5
L380.268 367.5
L380.269 73.5
L380.379 367.5
L380.421 367.5
L380.422 73.5
L380.532 367.5
L380.655 367.5
L380.656 73.5
L380.766 367.5
L380.77 367.5
L380.818 73.5
L380.88 367.5
L383.182 367.5
L383.182 73.5
L383.293 367.5
L384.494 367.5
L384.495 73.5
L384.605 367.5
L387.406 367.5
L387.414 73.5
L387.517 367.5
L391.3 367.5
L391.3 73.5
L391.41 367.5
L391.611 367.5
L391.612 73.5
L391.722 367.5
L395.266 367.5
L395.267 73.5
L395.377 367.5
L397.877 367.5
L397.88 73.5
L397.988 367.5
L398.628 367.5
L398.629 73.5
L398.739 367.5
L399.09 367.5
L399.094 73.5
L399.2 367.5
L400.013 367.5
L400.013 73.5
L400.124 367.5
L403.406 367.5
L403.407 73.5
L403.517 367.5
L403.607 367.5
L403.608 73.5
L403.718 367.5
L404.632 367.5
L404.633 73.5
L404.743 367.5
L405.041 367.5
L405.063 73.5
L405.152 367.5
L405.247 367.5
L405.248 73.5
L405.358 367.5
L405.479 367.5
L405.499 73.5
L405.59 367.5
L405.759 367.5
L405.768 73.5
L405.87 367.5
L406.731 367.5
L406.739 73.5
L406.842 367.5
L407.726 367.5
L407.727 73.5
L407.837 367.5
L408.596 367.5
L408.597 73.5
L408.707 367.5
L408.734 367.5
L408.735 73.5
L408.845 367.5
L410.036 367.5
L410.037 73.5
L410.147 367.5
L410.318 367.5
L410.319 73.5
L410.429 367.5
L410.461 367.5
L410.466 73.5
L410.572 367.5
L411.835 367.5
L411.927 73.5
L411.945 367.5
L412.261 367.5
L412.263 73.5
L412.371 367.5
L412.623 367.5
L412.623 73.5
L412.733 367.5
L413.009 367.5
L413.009 73.5
L413.119 367.5
L413.634 367.5
L413.635 73.5
L413.745 367.5
L413.784 367.5
L413.785 73.5
L413.895 367.5
L414.249 367.5
L414.251 73.5
L414.36 367.5
L414.365 367.5
L414.366 73.5
L414.476 367.5
L416.082 367.5
L416.082 73.5
L416.193 367.5
L418.015 367.5
L418.015 73.5
L418.125 367.5
L418.388 367.5
L418.388 73.5
L418.498 367.5
L419.295 367.5
L419.295 73.5
L419.406 367.5
L419.75 367.5
L419.752 73.5
L419.861 367.5
L420.096 367.5
L420.104 73.5
L420.206 367.5
L420.351 367.5
L420.351 73.5
L420.462 367.5
L420.537 367.5
L420.538 73.5
L420.648 367.5
L420.967 367.5
L420.967 73.5
L421.077 367.5
L421.838 367.5
L421.846 73.5
L421.949 367.5
L422.526 367.5
L422.527 73.5
L422.637 367.5
L423.23 367.5
L423.231 73.5
L423.341 367.5
L425.93 367.5
L425.93 73.5
L426.04 367.5
L426.641 367.5
L426.643 73.5
L426.752 367.5
L426.917 367.5
L426.917 73.5
L427.027 367.5
L427.335 367.5
L427.337 73.5
L427.446 367.5
L427.898 367.5
L427.912 73.5
L428.009 367.5
L429.821 367.5
L429.822 73.5
L429.932 367.5
L431.089 367.5
L431.09 73.5
L431.2 367.5
L434.899 367.5
L434.998 73.5
L435.009 367.5
L437.798 367.5
L437.806 73.5
L437.909 367.5
L438.684 367.5
L438.684 73.5
L438.794 367.5
L439.261 367.5
L439.262 73.5
L439.372 367.5
L440.26 367.5
L440.26 73.5
L440.37 367.5
L440.599 367.5
L440.6 73.5
L440.71 367.5
L441.134 367.5
L441.134 73.5
L441.245 367.5
L442.325 367.5
L442.326 73.5
L442.436 367.5
L446.355 367.5
L446.367 73.5
L446.466 367.5
L447.867 367.5
L447.868 73.5
L447.978 367.5
L453.371 367.5
L453.372 73.5
L453.482 367.5
L454.295 367.5
L454.362 73.5
L454.406 367.5
L454.66 367.5
L454.666 73.5
L454.771 367.5
L455.251 367.5
L455.252 73.5
L455.362 367.5
L459.581 367.5
L459.583 73.5
L459.692 367.5
L459.92 367.5
L459.924 73.5
L460.031 367.5
L462.697 367.5
L462.697 73.5
L462.807 367.5
L463.412 367.5
L463.412 73.5
L463.522 367.5
L463.885 367.5
L463.93 73.5
L463.995 367.5
L464.07 367.5
L464.073 73.5
L464.181 367.5
L464.327 367.5
L464.327 73.5
L464.437 367.5
L464.613 367.5
L464.613 73.5
L464.723 367.5
L465.649 367.5
L465.729 73.5
L465.759 367.5
L465.816 367.5
L465.817 73.5
L465.927 367.5
L467.062 367.5
L467.063 73.5
L467.173 367.5
L467.369 367.5
L467.384 73.5
L467.48 367.5
L467.71 367.5
L467.711 73.5
L467.821 367.5
L467.865 367.5
L467.971 73.5
L467.976 367.5
L468.197 367.5
L468.198 73.5
L468.308 367.5
L468.472 367.5
L468.473 73.5
L468.583 367.5
L468.887 367.5
L468.923 73.5
L468.998 367.5
L469.203 367.5
L469.204 73.5
L469.314 367.5
L469.579 367.5
L469.626 73.5
L469.69 367.5
L470.778 367.5
L470.779 73.5
L470.889 367.5
L471.415 367.5
L471.416 73.5
L471.526 367.5
L471.58 367.5
L471.581 73.5
L471.691 367.5
L471.723 367.5
L471.729 73.5
L471.834 367.5
L472.062 367.5
L472.077 73.5
L472.173 367.5
L472.501 367.5
L472.529 73.5
L472.612 367.5
L473.67 367.5
L473.671 73.5
L473.781 367.5
L473.873 367.5
L473.874 73.5
L473.984 367.5
L475.498 367.5
L475.498 73.5
L475.609 367.5
L478.177 367.5
L478.178 73.5
L478.287 367.5
L479.197 367.5
L479.198 73.5
L479.308 367.5
L479.564 367.5
L479.565 73.5
L479.675 367.5
L480.166 367.5
L480.167 73.5
L480.277 367.5
L481.021 367.5
L481.022 73.5
L481.132 367.5
L484.035 367.5
L484.036 73.5
L484.146 367.5
L487.47 367.5
L487.47 73.5
L487.58 367.5
L496.194 367.5
L496.195 73.5
L496.305 367.5
L497.213 367.5
L497.214 73.5
L497.324 367.5
L497.861 367.5
L497.861 73.5
L497.971 367.5
L500.029 367.5
L500.03 73.5
L500.139 367.5
L500.708 367.5
L500.708 73.5
L500.818 367.5
L501.03 367.5
L501.031 73.5
L501.141 367.5
L507.376 367.5
L507.377 73.5
L507.487 367.5
L509.575 367.5
L509.575 73.5
L509.686 367.5
L510.643 367.5
L510.649 73.5
L510.754 367.5
L513.688 367.5
L513.786 73.5
L513.799 367.5
L514.392 367.5
L514.412 73.5
L514.503 367.5
L514.636 367.5
L514.709 73.5
L514.746 367.5
L514.815 367.5
L514.816 73.5
L514.926 367.5
L514.949 367.5
L514.956 73.5
L515.06 367.5
L515.146 367.5
L515.179 73.5
L515.257 367.5
L515.282 367.5
L515.283 73.5
L515.393 367.5
L516.349 367.5
L516.366 73.5
L516.46 367.5
L518.691 367.5
L518.708 73.5
L518.802 367.5
L518.979 367.5
L518.979 73.5
L519.09 367.5
L519.396 367.5
L519.488 73.5
L519.506 367.5
L519.602 367.5
L519.712 73.5
L519.713 367.5
L519.798 367.5
L519.798 73.5
L519.908 367.5
L520.202 367.5
L520.305 73.5
L520.312 367.5
L520.366 367.5
L520.457 73.5
L520.477 367.5
L520.619 367.5
L520.667 73.5
L520.73 367.5
L521.453 367.5
L521.454 73.5
L521.564 367.5
L522.294 367.5
L522.298 73.5
L522.404 367.5
L522.787 367.5
L522.898 73.5
L523.01 367.5
L523.013 367.5
L523.072 73.5
L523.124 367.5
L523.232 367.5
L523.232 73.5
L523.342 367.5
L523.756 367.5
L523.789 73.5
L523.867 367.5
L524.238 367.5
L524.239 73.5
L524.349 367.5
L524.652 367.5
L524.653 73.5
L524.763 367.5
L524.945 367.5
L524.946 73.5
L525.056 367.5
L525.673 367.5
L525.673 73.5
L525.784 367.5
L526.334 367.5
L526.334 73.5
L526.445 367.5
L526.499 367.5
L526.499 367.5" style="fill:none;stroke:#000000;stroke-linecap:square;"/>
   </g>
   <g id="matplotlib.axis_1">
    <g id="xtick_1">
     <g id="line2d_2">
      <defs>
       <path d="
M0 0
L0 -4" id="m93b0483c22" style="stroke:#000000;stroke-width:0.5;"/>
      </defs>
      <g>
       <use style="stroke:#000000;stroke-width:0.5;" x="124.022938738" xlink:href="#m93b0483c22" y="396.9"/>
      </g>
     </g>
     <g id="line2d_3">
      <defs>
       <path d="
M0 0
L0 4" id="m741efc42ff" style="stroke:#000000;stroke-width:0.5;"/>
      </defs>
      <g>
       <use style="stroke:#000000;stroke-width:0.5;" x="124.022938738" xlink:href="#m741efc42ff" y="44.1"/>
      </g>
     </g>
     <g id="text_1">
      <!-- 2.0 -->
      <defs>
       <path d="
M31.7812 66.4062
Q24.1719 66.4062 20.3281 58.9062
Q16.5 51.4219 16.5 36.375
Q16.5 21.3906 20.3281 13.8906
Q24.1719 6.39062 31.7812 6.39062
Q39.4531 6.39062 43.2812 13.8906
Q47.125 21.3906 47.125 36.375
Q47.125 51.4219 43.2812 58.9062
Q39.4531 66.4062 31.7812 66.4062
M31.7812 74.2188
Q44.0469 74.2188 50.5156 64.5156
Q56.9844 54.8281 56.9844 36.375
Q56.9844 17.9688 50.5156 8.26562
Q44.0469 -1.42188 31.7812 -1.42188
Q19.5312 -1.42188 13.0625 8.26562
Q6.59375 17.9688 6.59375 36.375
Q6.59375 54.8281 13.0625 64.5156
Q19.5312 74.2188 31.7812 74.2188" id="DejaVuSans-30"/>
       <path d="
M19.1875 8.29688
L53.6094 8.29688
L53.6094 0
L7.32812 0
L7.32812 8.29688
Q12.9375 14.1094 22.625 23.8906
Q32.3281 33.6875 34.8125 36.5312
Q39.5469 41.8438 41.4219 45.5312
Q43.3125 49.2188 43.3125 52.7812
Q43.3125 58.5938 39.2344 62.25
Q35.1562 65.9219 28.6094 65.9219
Q23.9688 65.9219 18.8125 64.3125
Q13.6719 62.7031 7.8125 59.4219
L7.8125 69.3906
Q13.7656 71.7812 18.9375 73
Q24.125 74.2188 28.4219 74.2188
Q39.75 74.2188 46.4844 68.5469
Q53.2188 62.8906 53.2188 53.4219
Q53.2188 48.9219 51.5312 44.8906
Q49.8594 40.875 45.4062 35.4062
Q44.1875 33.9844 37.6406 27.2188
Q31.1094 20.4531 19.1875 8.29688" id="DejaVuSans-32"/>
       <path d="
M10.6875 12.4062
L21 12.4062
L21 0
L10.6875 0
z
" id="DejaVuSans-2e"/>
      </defs>
      <g transform="translate(115.319188738 410.018125)scale(0.12 -0.12)">
       <use xlink:href="#DejaVuSans-32"/>
       <use x="63.623046875" xlink:href="#DejaVuSans-2e"/>
       <use x="95.41015625" xlink:href="#DejaVuSans-30"/>
      </g>
     </g>
    </g>
    <g id="xtick_2">
     <g id="line2d_4">
      <g>
       <use style="stroke:#000000;stroke-width:0.5;" x="188.450709292" xlink:href="#m93b0483c22" y="396.9"/>
      </g>
     </g>
     <g id="line2d_5">
      <g>
       <use style="stroke:#000000;stroke-width:0.5;" x="188.450709292" xlink:href="#m741efc42ff" y="44.1"/>
      </g>
     </g>
     <g id="text_2">
      <!-- 2.5 -->
      <defs>
       <path d="
M10.7969 72.9062
L49.5156 72.9062
L49.5156 64.5938
L19.8281 64.5938
L19.8281 46.7344
Q21.9688 47.4688 24.1094 47.8281
Q26.2656 48.1875 28.4219 48.1875
Q40.625 48.1875 47.75 41.5
Q54.8906 34.8125 54.8906 23.3906
Q54.8906 11.625 47.5625 5.09375
Q40.2344 -1.42188 26.9062 -1.42188
Q22.3125 -1.42188 17.5469 -0.640625
Q12.7969 0.140625 7.71875 1.70312
L7.71875 11.625
Q12.1094 9.23438 16.7969 8.0625
Q21.4844 6.89062 26.7031 6.89062
Q35.1562 6.89062 40.0781 11.3281
Q45.0156 15.7656 45.0156 23.3906
Q45.0156 31 40.0781 35.4375
Q35.1562 39.8906 26.7031 39.8906
Q22.75 39.8906 18.8125 39.0156
Q14.8906 38.1406 10.7969 36.2812
z
" id="DejaVuSans-35"/>
      </defs>
      <g transform="translate(179.872584292 410.018125)scale(0.12 -0.12)">
       <use xlink:href="#DejaVuSans-32"/>
       <use x="63.623046875" xlink:href="#DejaVuSans-2e"/>
       <use x="95.41015625" xlink:href="#DejaVuSans-35"/>
      </g>
     </g>
    </g>
    <g id="xtick_3">
     <g id="line2d_6">
      <g>
       <use style="stroke:#000000;stroke-width:0.5;" x="252.878479846" xlink:href="#m93b0483c22" y="396.9"/>
      </g>
     </g>
     <g id="line2d_7">
      <g>
       <use style="stroke:#000000;stroke-width:0.5;" x="252.878479846" xlink:href="#m741efc42ff" y="44.1"/>
      </g>
     </g>
     <g id="text_3">
      <!-- 3.0 -->
      <defs>
       <path d="
M40.5781 39.3125
Q47.6562 37.7969 51.625 33
Q55.6094 28.2188 55.6094 21.1875
Q55.6094 10.4062 48.1875 4.48438
Q40.7656 -1.42188 27.0938 -1.42188
Q22.5156 -1.42188 17.6562 -0.515625
Q12.7969 0.390625 7.625 2.20312
L7.625 11.7188
Q11.7188 9.32812 16.5938 8.10938
Q21.4844 6.89062 26.8125 6.89062
Q36.0781 6.89062 40.9375 10.5469
Q45.7969 14.2031 45.7969 21.1875
Q45.7969 27.6406 41.2812 31.2656
Q36.7656 34.9062 28.7188 34.9062
L20.2188 34.9062
L20.2188 43.0156
L29.1094 43.0156
Q36.375 43.0156 40.2344 45.9219
Q44.0938 48.8281 44.0938 54.2969
Q44.0938 59.9062 40.1094 62.9062
Q36.1406 65.9219 28.7188 65.9219
Q24.6562 65.9219 20.0156 65.0312
Q15.375 64.1562 9.8125 62.3125
L9.8125 71.0938
Q15.4375 72.6562 20.3438 73.4375
Q25.25 74.2188 29.5938 74.2188
Q40.8281 74.2188 47.3594 69.1094
Q53.9062 64.0156 53.9062 55.3281
Q53.9062 49.2656 50.4375 45.0938
Q46.9688 40.9219 40.5781 39.3125" id="DejaVuSans-33"/>
      </defs>
      <g transform="translate(244.192542346 410.018125)scale(0.12 -0.12)">
       <use xlink:href="#DejaVuSans-33"/>
       <use x="63.623046875" xlink:href="#DejaVuSans-2e"/>
       <use x="95.41015625" xlink:href="#DejaVuSans-30"/>
      </g>
     </g>
    </g>
    <g id="xtick_4">
     <g id="line2d_8">
      <g>
       <use style="stroke:#000000;stroke-width:0.5;" x="317.3062504" xlink:href="#m93b0483c22" y="396.9"/>
      </g>
     </g>
     <g id="line2d_9">
      <g>
       <use style="stroke:#000000;stroke-width:0.5;" x="317.3062504" xlink:href="#m741efc42ff" y="44.1"/>
      </g>
     </g>
     <g id="text_4">
      <!-- 3.5 -->
      <g transform="translate(308.7459379 410.018125)scale(0.12 -0.12)">
       <use xlink:href="#DejaVuSans-33"/>
       <use x="63.623046875" xlink:href="#DejaVuSans-2e"/>
       <use x="95.41015625" xlink:href="#DejaVuSans-35"/>
      </g>
     </g>
    </g>
    <g id="xtick_5">
     <g id="line2d_10">
      <g>
       <use style="stroke:#000000;stroke-width:0.5;" x="381.734020954" xlink:href="#m93b0483c22" y="396.9"/>
      </g>
     </g>
     <g id="line2d_11">
      <g>
       <use style="stroke:#000000;stroke-width:0.5;" x="381.734020954" xlink:href="#m741efc42ff" y="44.1"/>
      </g>
     </g>
     <g id="text_5">
      <!-- 4.0 -->
      <defs>
       <path d="
M37.7969 64.3125
L12.8906 25.3906
L37.7969 25.3906
z

M35.2031 72.9062
L47.6094 72.9062
L47.6094 25.3906
L58.0156 25.3906
L58.0156 17.1875
L47.6094 17.1875
L47.6094 0
L37.7969 0
L37.7969 17.1875
L4.89062 17.1875
L4.89062 26.7031
z
" id="DejaVuSans-34"/>
      </defs>
      <g transform="translate(372.884020954 410.018125)scale(0.12 -0.12)">
       <use xlink:href="#DejaVuSans-34"/>
       <use x="63.623046875" xlink:href="#DejaVuSans-2e"/>
       <use x="95.41015625" xlink:href="#DejaVuSans-30"/>
      </g>
     </g>
    </g>
    <g id="xtick_6">
     <g id="line2d_12">
      <g>
       <use style="stroke:#000000;stroke-width:0.5;" x="446.161791508" xlink:href="#m93b0483c22" y="396.9"/>
      </g>
     </g>
     <g id="line2d_13">
      <g>
       <use style="stroke:#000000;stroke-width:0.5;" x="446.161791508" xlink:href="#m741efc42ff" y="44.1"/>
      </g>
     </g>
     <g id="text_6">
      <!-- 4.5 -->
      <g transform="translate(437.437416508 410.018125)scale(0.12 -0.12)">
       <use xlink:href="#DejaVuSans-34"/>
       <use x="63.623046875" xlink:href="#DejaVuSans-2e"/>
       <use x="95.41015625" xlink:href="#DejaVuSans-35"/>
      </g>
     </g>
    </g>
    <g id="xtick_7">
     <g id="line2d_14">
      <g>
       <use style="stroke:#000000;stroke-width:0.5;" x="510.589562062" xlink:href="#m93b0483c22" y="396.9"/>
      </g>
     </g>
     <g id="line2d_15">
      <g>
       <use style="stroke:#000000;stroke-width:0.5;" x="510.589562062" xlink:href="#m741efc42ff" y="44.1"/>
      </g>
     </g>
     <g id="text_7">
      <!-- 5.0 -->
      <g transform="translate(501.909249562 410.018125)scale(0.12 -0.12)">
       <use xlink:href="#DejaVuSans-35"/>
       <use x="63.623046875" xlink:href="#DejaVuSans-2e"/>
       <use x="95.41015625" xlink:href="#DejaVuSans-30"/>
      </g>
     </g>
    </g>
    <g id="text_8">
     <!-- 1e7 -->
     <defs>
      <path d="
M12.4062 8.29688
L28.5156 8.29688
L28.5156 63.9219
L10.9844 60.4062
L10.9844 69.3906
L28.4219 72.9062
L38.2812 72.9062
L38.2812 8.29688
L54.3906 8.29688
L54.3906 0
L12.4062 0
z
" id="DejaVuSans-31"/>
      <path d="
M56.2031 29.5938
L56.2031 25.2031
L14.8906 25.2031
Q15.4844 15.9219 20.4844 11.0625
Q25.4844 6.20312 34.4219 6.20312
Q39.5938 6.20312 44.4531 7.46875
Q49.3125 8.73438 54.1094 11.2812
L54.1094 2.78125
Q49.2656 0.734375 44.1875 -0.34375
Q39.1094 -1.42188 33.8906 -1.42188
Q20.7969 -1.42188 13.1562 6.1875
Q5.51562 13.8125 5.51562 26.8125
Q5.51562 40.2344 12.7656 48.1094
Q20.0156 56 32.3281 56
Q43.3594 56 49.7812 48.8906
Q56.2031 41.7969 56.2031 29.5938
M47.2188 32.2344
Q47.125 39.5938 43.0938 43.9844
Q39.0625 48.3906 32.4219 48.3906
Q24.9062 48.3906 20.3906 44.1406
Q15.875 39.8906 15.1875 32.1719
z
" id="DejaVuSans-65"/>
      <path d="
M8.20312 72.9062
L55.0781 72.9062
L55.0781 68.7031
L28.6094 0
L18.3125 0
L43.2188 64.5938
L8.20312 64.5938
z
" id="DejaVuSans-37"/>
     </defs>
     <g transform="translate(506.19 424.631875)scale(0.12 -0.12)">
      <use xlink:href="#DejaVuSans-31"/>
      <use x="63.623046875" xlink:href="#DejaVuSans-65"/>
      <use x="125.146484375" xlink:href="#DejaVuSans-37"/>
     </g>
    </g>
   </g>
   <g id="matplotlib.axis_2">
    <g id="ytick_1">
     <g id="line2d_16">
      <defs>
       <path d="
M0 0
L4 0" id="m728421d6d4" style="stroke:#000000;stroke-width:0.5;"/>
      </defs>
      <g>
       <use style="stroke:#000000;stroke-width:0.5;" x="73.125" xlink:href="#m728421d6d4" y="367.5"/>
      </g>
     </g>
     <g id="line2d_17">
      <defs>
       <path d="
M0 0
L-4 0" id="mcb0005524f" style="stroke:#000000;stroke-width:0.5;"/>
      </defs>
      <g>
       <use style="stroke:#000000;stroke-width:0.5;" x="526.5" xlink:href="#mcb0005524f" y="367.5"/>
      </g>
     </g>
     <g id="text_9">
      <!-- 0.0 -->
      <g transform="translate(51.629375 370.81125)scale(0.12 -0.12)">
       <use xlink:href="#DejaVuSans-30"/>
       <use x="63.623046875" xlink:href="#DejaVuSans-2e"/>
       <use x="95.41015625" xlink:href="#DejaVuSans-30"/>
      </g>
     </g>
    </g>
    <g id="ytick_2">
     <g id="line2d_18">
      <g>
       <use style="stroke:#000000;stroke-width:0.5;" x="73.125" xlink:href="#m728421d6d4" y="308.7"/>
      </g>
     </g>
     <g id="line2d_19">
      <g>
       <use style="stroke:#000000;stroke-width:0.5;" x="526.5" xlink:href="#mcb0005524f" y="308.7"/>
      </g>
     </g>
     <g id="text_10">
      <!-- 0.2 -->
      <g transform="translate(52.034375 312.01125)scale(0.12 -0.12)">
       <use xlink:href="#DejaVuSans-30"/>
       <use x="63.623046875" xlink:href="#DejaVuSans-2e"/>
       <use x="95.41015625" xlink:href="#DejaVuSans-32"/>
      </g>
     </g>
    </g>
    <g id="ytick_3">
     <g id="line2d_20">
      <g>
       <use style="stroke:#000000;stroke-width:0.5;" x="73.125" xlink:href="#m728421d6d4" y="249.9"/>
      </g>
     </g>
     <g id="line2d_21">
      <g>
       <use style="stroke:#000000;stroke-width:0.5;" x="526.5" xlink:href="#mcb0005524f" y="249.9"/>
      </g>
     </g>
     <g id="text_11">
      <!-- 0.4 -->
      <g transform="translate(51.505625 253.21125)scale(0.12 -0.12)">
       <use xlink:href="#DejaVuSans-30"/>
       <use x="63.623046875" xlink:href="#DejaVuSans-2e"/>
       <use x="95.41015625" xlink:href="#DejaVuSans-34"/>
      </g>
     </g>
    </g>
    <g id="ytick_4">
     <g id="line2d_22">
      <g>
       <use style="stroke:#000000;stroke-width:0.5;" x="73.125" xlink:href="#m728421d6d4" y="191.1"/>
      </g>
     </g>
     <g id="line2d_23">
      <g>
       <use style="stroke:#000000;stroke-width:0.5;" x="526.5" xlink:href="#mcb0005524f" y="191.1"/>
      </g>
     </g>
     <g id="text_12">
      <!-- 0.6 -->
      <defs>
       <path d="
M33.0156 40.375
Q26.375 40.375 22.4844 35.8281
Q18.6094 31.2969 18.6094 23.3906
Q18.6094 15.5312 22.4844 10.9531
Q26.375 6.39062 33.0156 6.39062
Q39.6562 6.39062 43.5312 10.9531
Q47.4062 15.5312 47.4062 23.3906
Q47.4062 31.2969 43.5312 35.8281
Q39.6562 40.375 33.0156 40.375
M52.5938 71.2969
L52.5938 62.3125
Q48.875 64.0625 45.0938 64.9844
Q41.3125 65.9219 37.5938 65.9219
Q27.8281 65.9219 22.6719 59.3281
Q17.5312 52.7344 16.7969 39.4062
Q19.6719 43.6562 24.0156 45.9219
Q28.375 48.1875 33.5938 48.1875
Q44.5781 48.1875 50.9531 41.5156
Q57.3281 34.8594 57.3281 23.3906
Q57.3281 12.1562 50.6875 5.35938
Q44.0469 -1.42188 33.0156 -1.42188
Q20.3594 -1.42188 13.6719 8.26562
Q6.98438 17.9688 6.98438 36.375
Q6.98438 53.6562 15.1875 63.9375
Q23.3906 74.2188 37.2031 74.2188
Q40.9219 74.2188 44.7031 73.4844
Q48.4844 72.75 52.5938 71.2969" id="DejaVuSans-36"/>
      </defs>
      <g transform="translate(51.588125 194.41125)scale(0.12 -0.12)">
       <use xlink:href="#DejaVuSans-30"/>
       <use x="63.623046875" xlink:href="#DejaVuSans-2e"/>
       <use x="95.41015625" xlink:href="#DejaVuSans-36"/>
      </g>
     </g>
    </g>
    <g id="ytick_5">
     <g id="line2d_24">
      <g>
       <use style="stroke:#000000;stroke-width:0.5;" x="73.125" xlink:href="#m728421d6d4" y="132.3"/>
      </g>
     </g>
     <g id="line2d_25">
      <g>
       <use style="stroke:#000000;stroke-width:0.5;" x="526.5" xlink:href="#mcb0005524f" y="132.3"/>
      </g>
     </g>
     <g id="text_13">
      <!-- 0.8 -->
      <defs>
       <path d="
M31.7812 34.625
Q24.75 34.625 20.7188 30.8594
Q16.7031 27.0938 16.7031 20.5156
Q16.7031 13.9219 20.7188 10.1562
Q24.75 6.39062 31.7812 6.39062
Q38.8125 6.39062 42.8594 10.1719
Q46.9219 13.9688 46.9219 20.5156
Q46.9219 27.0938 42.8906 30.8594
Q38.875 34.625 31.7812 34.625
M21.9219 38.8125
Q15.5781 40.375 12.0312 44.7188
Q8.5 49.0781 8.5 55.3281
Q8.5 64.0625 14.7188 69.1406
Q20.9531 74.2188 31.7812 74.2188
Q42.6719 74.2188 48.875 69.1406
Q55.0781 64.0625 55.0781 55.3281
Q55.0781 49.0781 51.5312 44.7188
Q48 40.375 41.7031 38.8125
Q48.8281 37.1562 52.7969 32.3125
Q56.7812 27.4844 56.7812 20.5156
Q56.7812 9.90625 50.3125 4.23438
Q43.8438 -1.42188 31.7812 -1.42188
Q19.7344 -1.42188 13.25 4.23438
Q6.78125 9.90625 6.78125 20.5156
Q6.78125 27.4844 10.7812 32.3125
Q14.7969 37.1562 21.9219 38.8125
M18.3125 54.3906
Q18.3125 48.7344 21.8438 45.5625
Q25.3906 42.3906 31.7812 42.3906
Q38.1406 42.3906 41.7188 45.5625
Q45.3125 48.7344 45.3125 54.3906
Q45.3125 60.0625 41.7188 63.2344
Q38.1406 66.4062 31.7812 66.4062
Q25.3906 66.4062 21.8438 63.2344
Q18.3125 60.0625 18.3125 54.3906" id="DejaVuSans-38"/>
      </defs>
      <g transform="translate(51.65375 135.61125)scale(0.12 -0.12)">
       <use xlink:href="#DejaVuSans-30"/>
       <use x="63.623046875" xlink:href="#DejaVuSans-2e"/>
       <use x="95.41015625" xlink:href="#DejaVuSans-38"/>
      </g>
     </g>
    </g>
    <g id="ytick_6">
     <g id="line2d_26">
      <g>
       <use style="stroke:#000000;stroke-width:0.5;" x="73.125" xlink:href="#m728421d6d4" y="73.5"/>
      </g>
     </g>
     <g id="line2d_27">
      <g>
       <use style="stroke:#000000;stroke-width:0.5;" x="526.5" xlink:href="#mcb0005524f" y="73.5"/>
      </g>
     </g>
     <g id="text_14">
      <!-- 1.0 -->
      <g transform="translate(52.15625 76.81125)scale(0.12 -0.12)">
       <use xlink:href="#DejaVuSans-31"/>
       <use x="63.623046875" xlink:href="#DejaVuSans-2e"/>
       <use x="95.41015625" xlink:href="#DejaVuSans-30"/>
      </g>
     </g>
    </g>
   </g>
   <g id="patch_3">
    <path d="
M73.125 44.1
L526.5 44.1" style="fill:none;stroke:#000000;"/>
   </g>
   <g id="patch_4">
    <path d="
M526.5 396.9
L526.5 44.1" style="fill:none;stroke:#000000;"/>
   </g>
   <g id="patch_5">
    <path d="
M73.125 396.9
L526.5 396.9" style="fill:none;stroke:#000000;"/>
   </g>
   <g id="patch_6">
    <path d="
M73.125 396.9
L73.125 44.1" style="fill:none;stroke:#000000;"/>
   </g>
  </g>
 </g>
 <defs>
  <clipPath id="p5873ec822d">
   <rect height="352.8" width="453.375" x="73.125" y="44.1"/>
  </clipPath>
 </defs>
</svg>
