<?xml version="1.0" encoding="utf-8" standalone="no"?>
<!DOCTYPE svg PUBLIC "-//W3C//DTD SVG 1.1//EN"
  "http://www.w3.org/Graphics/SVG/1.1/DTD/svg11.dtd">
<!-- Created with matplotlib (http://matplotlib.org/) -->
<svg height="441pt" version="1.1" viewBox="0 0 585 441" width="585pt" xmlns="http://www.w3.org/2000/svg" xmlns:xlink="http://www.w3.org/1999/xlink">
 <defs>
  <style type="text/css">
*{stroke-linecap:butt;stroke-linejoin:round;}
  </style>
 </defs>
 <g id="figure_1">
  <g id="patch_1">
   <path d="
M0 441
L585 441
L585 0
L0 0
z
" style="fill:#ffffff;"/>
  </g>
  <g id="axes_1">
   <g id="patch_2">
    <path d="
M73.125 396.9
L526.5 396.9
L526.5 44.1
L73.125 44.1
z
" style="fill:#ffffff;"/>
   </g>
   <g id="line2d_1">
    <path clip-path="url(#p5873ec822d)" d="
M73.125 308.7
L101.561 308.7
L101.562 132.3
L101.672 308.7
L103.684 308.7
L103.684 132.3
L103.795 308.7
L104.492 308.7
L104.492 132.3
L104.603 308.7
L113.284 308.7
L113.285 132.3
L113.395 308.7
L114.741 308.7
L114.742 132.3
L114.852 308.7
L116.533 308.7
L116.534 132.3
L116.644 308.7
L120.22 308.7
L120.318 132.3
L120.331 308.7
L121.371 308.7
L121.371 132.3
L121.481 308.7
L122.33 308.7
L122.407 132.3
L122.441 308.7
L122.468 308.7
L122.468 132.3
L122.579 308.7
L123.121 308.7
L123.122 132.3
L123.232 308.7
L124.785 308.7
L124.786 132.3
L124.896 308.7
L124.959 308.7
L124.959 132.3
L125.069 308.7
L125.379 308.7
L125.379 132.3
L125.489 308.7
L135.335 308.7
L135.336 132.3
L135.446 308.7
L138.498 308.7
L138.499 132.3
L138.609 308.7
L139.654 308.7
L139.654 132.3
L139.765 308.7
L141.964 308.7
L141.964 132.3
L142.074 308.7
L147.124 308.7
L147.125 132.3
L147.235 308.7
L147.868 308.7
L147.868 132.3
L147.979 308.7
L148.121 308.7
L148.122 132.3
L148.232 308.7
L149.582 308.7
L149.583 132.3
L149.693 308.7
L149.944 308.7
L149.945 132.3
L150.055 308.7
L150.661 308.7
L150.661 132.3
L150.772 308.7
L154.135 308.7
L154.135 132.3
L154.245 308.7
L161.385 308.7
L161.385 132.3
L161.496 308.7
L162.797 308.7
L162.798 132.3
L162.908 308.7
L169.437 308.7
L169.438 132.3
L169.548 308.7
L169.871 308.7
L169.976 132.3
L169.982 308.7
L170.33 308.7
L170.336 132.3
L170.441 308.7
L176.99 308.7
L176.99 132.3
L177.101 308.7
L178.618 308.7
L178.628 132.3
L178.729 308.7
L183.819 308.7
L183.82 132.3
L183.93 308.7
L187.296 308.7
L187.296 132.3
L187.406 308.7
L192.195 308.7
L192.197 132.3
L192.306 308.7
L199.319 308.7
L199.319 132.3
L199.429 308.7
L212.68 308.7
L212.681 132.3
L212.791 308.7
L214.931 308.7
L214.931 132.3
L215.042 308.7
L231.159 308.7
L231.16 132.3
L231.27 308.7
L242.548 308.7
L242.549 132.3
L242.659 308.7
L243.354 308.7
L243.354 132.3
L243.465 308.7
L243.583 308.7
L243.584 132.3
L243.694 308.7
L244.077 308.7
L244.08 132.3
L244.188 308.7
L245.161 308.7
L245.162 132.3
L245.272 308.7
L248.557 308.7
L248.558 132.3
L248.668 308.7
L251.294 308.7
L251.295 132.3
L251.405 308.7
L252.573 308.7
L252.574 132.3
L252.684 308.7
L260.674 308.7
L260.675 132.3
L260.785 308.7
L261.283 308.7
L261.283 132.3
L261.394 308.7
L263.447 308.7
L263.447 132.3
L263.558 308.7
L270.464 308.7
L270.465 132.3
L270.575 308.7
L276.008 308.7
L276.009 132.3
L276.119 308.7
L279.199 308.7
L279.203 132.3
L279.31 308.7
L283.031 308.7
L283.032 132.3
L283.142 308.7
L290.617 308.7
L290.617 132.3
L290.728 308.7
L303.605 308.7
L303.606 132.3
L303.716 308.7
L325.385 308.7
L325.385 132.3
L325.495 308.7
L327.202 308.7
L327.203 132.3
L327.313 308.7
L327.697 308.7
L327.698 132.3
L327.808 308.7
L329.971 308.7
L329.972 132.3
L330.082 308.7
L333.242 308.7
L333.243 132.3
L333.353 308.7
L339.532 308.7
L339.533 132.3
L339.642 308.7
L339.76 308.7
L339.835 132.3
L339.871 308.7
L340.698 308.7
L340.702 132.3
L340.809 308.7
L341.832 308.7
L341.833 132.3
L341.943 308.7
L345.369 308.7
L345.37 132.3
L345.48 308.7
L346.407 308.7
L346.407 132.3
L346.518 308.7
L348.443 308.7
L348.444 132.3
L348.554 308.7
L348.6 308.7
L348.6 132.3
L348.711 308.7
L350.752 308.7
L350.752 132.3
L350.863 308.7
L354.046 308.7
L354.047 132.3
L354.157 308.7
L355.421 308.7
L355.427 132.3
L355.532 308.7
L361.509 308.7
L361.509 132.3
L361.619 308.7
L361.741 308.7
L361.742 132.3
L361.852 308.7
L362.489 308.7
L362.494 132.3
L362.599 308.7
L372.262 308.7
L372.263 132.3
L372.373 308.7
L376.983 308.7
L376.984 132.3
L377.094 308.7
L380.27 308.7
L380.271 132.3
L380.381 308.7
L380.658 308.7
L380.659 132.3
L380.769 308.7
L390.23 308.7
L390.231 132.3
L390.341 308.7
L399.094 308.7
L399.095 132.3
L399.205 308.7
L403.409 308.7
L403.41 132.3
L403.52 308.7
L403.608 308.7
L403.702 132.3
L403.719 308.7
L404.454 308.7
L404.455 132.3
L404.565 308.7
L404.637 308.7
L404.638 132.3
L404.748 308.7
L405.061 308.7
L405.062 132.3
L405.172 308.7
L406.737 308.7
L406.738 132.3
L406.848 308.7
L408.323 308.7
L408.324 132.3
L408.434 308.7
L408.589 308.7
L408.59 132.3
L408.7 308.7
L411.928 308.7
L411.929 132.3
L412.039 308.7
L419.297 308.7
L419.298 132.3
L419.408 308.7
L420.099 308.7
L420.099 132.3
L420.209 308.7
L427.902 308.7
L427.902 132.3
L428.012 308.7
L438.687 308.7
L438.783 132.3
L438.798 308.7
L443.063 308.7
L443.064 132.3
L443.174 308.7
L452.579 308.7
L452.579 132.3
L452.689 308.7
L453.314 308.7
L453.315 132.3
L453.425 308.7
L454.664 308.7
L454.664 132.3
L454.774 308.7
L455.311 308.7
L455.312 132.3
L455.422 308.7
L465.165 308.7
L465.165 132.3
L465.275 308.7
L465.295 308.7
L465.295 132.3
L465.406 308.7
L465.728 308.7
L465.729 132.3
L465.839 308.7
L473.674 308.7
L473.675 132.3
L473.785 308.7
L473.873 308.7
L473.969 132.3
L473.984 308.7
L515.149 308.7
L515.165 132.3
L515.26 308.7
L517.568 308.7
L517.569 132.3
L517.679 308.7
L518.457 308.7
L518.458 132.3
L518.568 308.7
L519.068 308.7
L519.069 132.3
L519.178 308.7
L521.23 308.7
L521.231 132.3
L521.341 308.7
L523.065 308.7
L523.066 132.3
L523.176 308.7
L524.518 308.7
L524.518 132.3
L524.628 308.7
L524.695 308.7
L524.696 132.3
L524.806 308.7
L525.267 308.7
L525.267 132.3
L525.378 308.7
L525.675 308.7
L525.675 132.3
L525.785 308.7
L526.341 308.7
L526.342 132.3
L526.452 308.7
L526.5 308.7
L526.5 308.7" style="fill:none;stroke:#000000;stroke-linecap:square;"/>
   </g>
   <g id="matplotlib.axis_1">
    <g id="xtick_1">
     <g id="line2d_2">
      <defs>
       <path d="
M0 0
L0 -4" id="m93b0483c22" style="stroke:#000000;stroke-width:0.5;"/>
      </defs>
      <g>
       <use style="stroke:#000000;stroke-width:0.5;" x="124.023009621" xlink:href="#m93b0483c22" y="396.9"/>
      </g>
     </g>
     <g id="line2d_3">
      <defs>
       <path d="
M0 0
L0 4" id="m741efc42ff" style="stroke:#000000;stroke-width:0.5;"/>
      </defs>
      <g>
       <use style="stroke:#000000;stroke-width:0.5;" x="124.023009621" xlink:href="#m741efc42ff" y="44.1"/>
      </g>
     </g>
     <g id="text_1">
      <!-- 2.0 -->
      <defs>
       <path d="
M31.7812 66.4062
Q24.1719 66.4062 20.3281 58.9062
Q16.5 51.4219 16.5 36.375
Q16.5 21.3906 20.3281 13.8906
Q24.1719 6.39062 31.7812 6.39062
Q39.4531 6.39062 43.2812 13.8906
Q47.125 21.3906 47.125 36.375
Q47.125 51.4219 43.2812 58.9062
Q39.4531 66.4062 31.7812 66.4062
M31.7812 74.2188
Q44.0469 74.2188 50.5156 64.5156
Q56.9844 54.8281 56.9844 36.375
Q56.9844 17.9688 50.5156 8.26562
Q44.0469 -1.42188 31.7812 -1.42188
Q19.5312 -1.42188 13.0625 8.26562
Q6.59375 17.9688 6.59375 36.375
Q6.59375 54.8281 13.0625 64.5156
Q19.5312 74.2188 31.7812 74.2188" id="DejaVuSans-30"/>
       <path d="
M19.1875 8.29688
L53.6094 8.29688
L53.6094 0
L7.32812 0
L7.32812 8.29688
Q12.9375 14.1094 22.625 23.8906
Q32.3281 33.6875 34.8125 36.5312
Q39.5469 41.8438 41.4219 45.5312
Q43.3125 49.2188 43.3125 52.7812
Q43.3125 58.5938 39.2344 62.25
Q35.1562 65.9219 28.6094 65.9219
Q23.9688 65.9219 18.8125 64.3125
Q13.6719 62.7031 7.8125 59.4219
L7.8125 69.3906
Q13.7656 71.7812 18.9375 73
Q24.125 74.2188 28.4219 74.2188
Q39.75 74.2188 46.4844 68.5469
Q53.2188 62.8906 53.2188 53.4219
Q53.2188 48.9219 51.5312 44.8906
Q49.8594 40.875 45.4062 35.4062
Q44.1875 33.9844 37.6406 27.2188
Q31.1094 20.4531 19.1875 8.29688" id="DejaVuSans-32"/>
       <path d="
M10.6875 12.4062
L21 12.4062
L21 0
L10.6875 0
z
" id="DejaVuSans-2e"/>
      </defs>
      <g transform="translate(115.319259621 410.018125)scale(0.12 -0.12)">
       <use xlink:href="#DejaVuSans-32"/>
       <use x="63.623046875" xlink:href="#DejaVuSans-2e"/>
       <use x="95.41015625" xlink:href="#DejaVuSans-30"/>
      </g>
     </g>
    </g>
    <g id="xtick_2">
     <g id="line2d_4">
      <g>
       <use style="stroke:#000000;stroke-width:0.5;" x="188.4508699" xlink:href="#m93b0483c22" y="396.9"/>
      </g>
     </g>
     <g id="line2d_5">
      <g>
       <use style="stroke:#000000;stroke-width:0.5;" x="188.4508699" xlink:href="#m741efc42ff" y="44.1"/>
      </g>
     </g>
     <g id="text_2">
      <!-- 2.5 -->
      <defs>
       <path d="
M10.7969 72.9062
L49.5156 72.9062
L49.5156 64.5938
L19.8281 64.5938
L19.8281 46.7344
Q21.9688 47.4688 24.1094 47.8281
Q26.2656 48.1875 28.4219 48.1875
Q40.625 48.1875 47.75 41.5
Q54.8906 34.8125 54.8906 23.3906
Q54.8906 11.625 47.5625 5.09375
Q40.2344 -1.42188 26.9062 -1.42188
Q22.3125 -1.42188 17.5469 -0.640625
Q12.7969 0.140625 7.71875 1.70312
L7.71875 11.625
Q12.1094 9.23438 16.7969 8.0625
Q21.4844 6.89062 26.7031 6.89062
Q35.1562 6.89062 40.0781 11.3281
Q45.0156 15.7656 45.0156 23.3906
Q45.0156 31 40.0781 35.4375
Q35.1562 39.8906 26.7031 39.8906
Q22.75 39.8906 18.8125 39.0156
Q14.8906 38.1406 10.7969 36.2812
z
" id="DejaVuSans-35"/>
      </defs>
      <g transform="translate(179.8727449 410.018125)scale(0.12 -0.12)">
       <use xlink:href="#DejaVuSans-32"/>
       <use x="63.623046875" xlink:href="#DejaVuSans-2e"/>
       <use x="95.41015625" xlink:href="#DejaVuSans-35"/>
      </g>
     </g>
    </g>
    <g id="xtick_3">
     <g id="line2d_6">
      <g>
       <use style="stroke:#000000;stroke-width:0.5;" x="252.878730179" xlink:href="#m93b0483c22" y="396.9"/>
      </g>
     </g>
     <g id="line2d_7">
      <g>
       <use style="stroke:#000000;stroke-width:0.5;" x="252.878730179" xlink:href="#m741efc42ff" y="44.1"/>
      </g>
     </g>
     <g id="text_3">
      <!-- 3.0 -->
      <defs>
       <path d="
M40.5781 39.3125
Q47.6562 37.7969 51.625 33
Q55.6094 28.2188 55.6094 21.1875
Q55.6094 10.4062 48.1875 4.48438
Q40.7656 -1.42188 27.0938 -1.42188
Q22.5156 -1.42188 17.6562 -0.515625
Q12.7969 0.390625 7.625 2.20312
L7.625 11.7188
Q11.7188 9.32812 16.5938 8.10938
Q21.4844 6.89062 26.8125 6.89062
Q36.0781 6.89062 40.9375 10.5469
Q45.7969 14.2031 45.7969 21.1875
Q45.7969 27.6406 41.2812 31.2656
Q36.7656 34.9062 28.7188 34.9062
L20.2188 34.9062
L20.2188 43.0156
L29.1094 43.0156
Q36.375 43.0156 40.2344 45.9219
Q44.0938 48.8281 44.0938 54.2969
Q44.0938 59.9062 40.1094 62.9062
Q36.1406 65.9219 28.7188 65.9219
Q24.6562 65.9219 20.0156 65.0312
Q15.375 64.1562 9.8125 62.3125
L9.8125 71.0938
Q15.4375 72.6562 20.3438 73.4375
Q25.25 74.2188 29.5938 74.2188
Q40.8281 74.2188 47.3594 69.1094
Q53.9062 64.0156 53.9062 55.3281
Q53.9062 49.2656 50.4375 45.0938
Q46.9688 40.9219 40.5781 39.3125" id="DejaVuSans-33"/>
      </defs>
      <g transform="translate(244.192792679 410.018125)scale(0.12 -0.12)">
       <use xlink:href="#DejaVuSans-33"/>
       <use x="63.623046875" xlink:href="#DejaVuSans-2e"/>
       <use x="95.41015625" xlink:href="#DejaVuSans-30"/>
      </g>
     </g>
    </g>
    <g id="xtick_4">
     <g id="line2d_8">
      <g>
       <use style="stroke:#000000;stroke-width:0.5;" x="317.306590459" xlink:href="#m93b0483c22" y="396.9"/>
      </g>
     </g>
     <g id="line2d_9">
      <g>
       <use style="stroke:#000000;stroke-width:0.5;" x="317.306590459" xlink:href="#m741efc42ff" y="44.1"/>
      </g>
     </g>
     <g id="text_4">
      <!-- 3.5 -->
      <g transform="translate(308.746277959 410.018125)scale(0.12 -0.12)">
       <use xlink:href="#DejaVuSans-33"/>
       <use x="63.623046875" xlink:href="#DejaVuSans-2e"/>
       <use x="95.41015625" xlink:href="#DejaVuSans-35"/>
      </g>
     </g>
    </g>
    <g id="xtick_5">
     <g id="line2d_10">
      <g>
       <use style="stroke:#000000;stroke-width:0.5;" x="381.734450738" xlink:href="#m93b0483c22" y="396.9"/>
      </g>
     </g>
     <g id="line2d_11">
      <g>
       <use style="stroke:#000000;stroke-width:0.5;" x="381.734450738" xlink:href="#m741efc42ff" y="44.1"/>
      </g>
     </g>
     <g id="text_5">
      <!-- 4.0 -->
      <defs>
       <path d="
M37.7969 64.3125
L12.8906 25.3906
L37.7969 25.3906
z

M35.2031 72.9062
L47.6094 72.9062
L47.6094 25.3906
L58.0156 25.3906
L58.0156 17.1875
L47.6094 17.1875
L47.6094 0
L37.7969 0
L37.7969 17.1875
L4.89062 17.1875
L4.89062 26.7031
z
" id="DejaVuSans-34"/>
      </defs>
      <g transform="translate(372.884450738 410.018125)scale(0.12 -0.12)">
       <use xlink:href="#DejaVuSans-34"/>
       <use x="63.623046875" xlink:href="#DejaVuSans-2e"/>
       <use x="95.41015625" xlink:href="#DejaVuSans-30"/>
      </g>
     </g>
    </g>
    <g id="xtick_6">
     <g id="line2d_12">
      <g>
       <use style="stroke:#000000;stroke-width:0.5;" x="446.162311018" xlink:href="#m93b0483c22" y="396.9"/>
      </g>
     </g>
     <g id="line2d_13">
      <g>
       <use style="stroke:#000000;stroke-width:0.5;" x="446.162311018" xlink:href="#m741efc42ff" y="44.1"/>
      </g>
     </g>
     <g id="text_6">
      <!-- 4.5 -->
      <g transform="translate(437.437936018 410.018125)scale(0.12 -0.12)">
       <use xlink:href="#DejaVuSans-34"/>
       <use x="63.623046875" xlink:href="#DejaVuSans-2e"/>
       <use x="95.41015625" xlink:href="#DejaVuSans-35"/>
      </g>
     </g>
    </g>
    <g id="xtick_7">
     <g id="line2d_14">
      <g>
       <use style="stroke:#000000;stroke-width:0.5;" x="510.590171297" xlink:href="#m93b0483c22" y="396.9"/>
      </g>
     </g>
     <g id="line2d_15">
      <g>
       <use style="stroke:#000000;stroke-width:0.5;" x="510.590171297" xlink:href="#m741efc42ff" y="44.1"/>
      </g>
     </g>
     <g id="text_7">
      <!-- 5.0 -->
      <g transform="translate(501.909858797 410.018125)scale(0.12 -0.12)">
       <use xlink:href="#DejaVuSans-35"/>
       <use x="63.623046875" xlink:href="#DejaVuSans-2e"/>
       <use x="95.41015625" xlink:href="#DejaVuSans-30"/>
      </g>
     </g>
    </g>
    <g id="text_8">
     <!-- 1e7 -->
     <defs>
      <path d="
M12.4062 8.29688
L28.5156 8.29688
L28.5156 63.9219
L10.9844 60.4062
L10.9844 69.3906
L28.4219 72.9062
L38.2812 72.9062
L38.2812 8.29688
L54.3906 8.29688
L54.3906 0
L12.4062 0
z
" id="DejaVuSans-31"/>
      <path d="
M56.2031 29.5938
L56.2031 25.2031
L14.8906 25.2031
Q15.4844 15.9219 20.4844 11.0625
Q25.4844 6.20312 34.4219 6.20312
Q39.5938 6.20312 44.4531 7.46875
Q49.3125 8.73438 54.1094 11.2812
L54.1094 2.78125
Q49.2656 0.734375 44.1875 -0.34375
Q39.1094 -1.42188 33.8906 -1.42188
Q20.7969 -1.42188 13.1562 6.1875
Q5.51562 13.8125 5.51562 26.8125
Q5.51562 40.2344 12.7656 48.1094
Q20.0156 56 32.3281 56
Q43.3594 56 49.7812 48.8906
Q56.2031 41.7969 56.2031 29.5938
M47.2188 32.2344
Q47.125 39.5938 43.0938 43.9844
Q39.0625 48.3906 32.4219 48.3906
Q24.9062 48.3906 20.3906 44.1406
Q15.875 39.8906 15.1875 32.1719
z
" id="DejaVuSans-65"/>
      <path d="
M8.20312 72.9062
L55.0781 72.9062
L55.0781 68.7031
L28.6094 0
L18.3125 0
L43.2188 64.5938
L8.20312 64.5938
z
" id="DejaVuSans-37"/>
     </defs>
     <g transform="translate(506.19 424.631875)scale(0.12 -0.12)">
      <use xlink:href="#DejaVuSans-31"/>
      <use x="63.623046875" xlink:href="#DejaVuSans-65"/>
      <use x="125.146484375" xlink:href="#DejaVuSans-37"/>
     </g>
    </g>
   </g>
   <g id="matplotlib.axis_2">
    <g id="ytick_1">
     <g id="line2d_16">
      <defs>
       <path d="
M0 0
L4 0" id="m728421d6d4" style="stroke:#000000;stroke-width:0.5;"/>
      </defs>
      <g>
       <use style="stroke:#000000;stroke-width:0.5;" x="73.125" xlink:href="#m728421d6d4" y="396.9"/>
      </g>
     </g>
     <g id="line2d_17">
      <defs>
       <path d="
M0 0
L-4 0" id="mcb0005524f" style="stroke:#000000;stroke-width:0.5;"/>
      </defs>
      <g>
       <use style="stroke:#000000;stroke-width:0.5;" x="526.5" xlink:href="#mcb0005524f" y="396.9"/>
      </g>
     </g>
     <g id="text_9">
      <!-- −0.5 -->
      <defs>
       <path d="
M10.5938 35.5
L73.1875 35.5
L73.1875 27.2031
L10.5938 27.2031
z
" id="DejaVuSans-2212"/>
      </defs>
      <g transform="translate(42.305 400.21125)scale(0.12 -0.12)">
       <use xlink:href="#DejaVuSans-2212"/>
       <use x="83.7890625" xlink:href="#DejaVuSans-30"/>
       <use x="147.412109375" xlink:href="#DejaVuSans-2e"/>
       <use x="179.19921875" xlink:href="#DejaVuSans-35"/>
      </g>
     </g>
    </g>
    <g id="ytick_2">
     <g id="line2d_18">
      <g>
       <use style="stroke:#000000;stroke-width:0.5;" x="73.125" xlink:href="#m728421d6d4" y="308.7"/>
      </g>
     </g>
     <g id="line2d_19">
      <g>
       <use style="stroke:#000000;stroke-width:0.5;" x="526.5" xlink:href="#mcb0005524f" y="308.7"/>
      </g>
     </g>
     <g id="text_10">
      <!-- 0.0 -->
      <g transform="translate(51.629375 312.01125)scale(0.12 -0.12)">
       <use xlink:href="#DejaVuSans-30"/>
       <use x="63.623046875" xlink:href="#DejaVuSans-2e"/>
       <use x="95.41015625" xlink:href="#DejaVuSans-30"/>
      </g>
     </g>
    </g>
    <g id="ytick_3">
     <g id="line2d_20">
      <g>
       <use style="stroke:#000000;stroke-width:0.5;" x="73.125" xlink:href="#m728421d6d4" y="220.5"/>
      </g>
     </g>
     <g id="line2d_21">
      <g>
       <use style="stroke:#000000;stroke-width:0.5;" x="526.5" xlink:href="#mcb0005524f" y="220.5"/>
      </g>
     </g>
     <g id="text_11">
      <!-- 0.5 -->
      <g transform="translate(51.880625 223.81125)scale(0.12 -0.12)">
       <use xlink:href="#DejaVuSans-30"/>
       <use x="63.623046875" xlink:href="#DejaVuSans-2e"/>
       <use x="95.41015625" xlink:href="#DejaVuSans-35"/>
      </g>
     </g>
    </g>
    <g id="ytick_4">
     <g id="line2d_22">
      <g>
       <use style="stroke:#000000;stroke-width:0.5;" x="73.125" xlink:href="#m728421d6d4" y="132.3"/>
      </g>
     </g>
     <g id="line2d_23">
      <g>
       <use style="stroke:#000000;stroke-width:0.5;" x="526.5" xlink:href="#mcb0005524f" y="132.3"/>
      </g>
     </g>
     <g id="text_12">
      <!-- 1.0 -->
      <g transform="translate(52.15625 135.61125)scale(0.12 -0.12)">
       <use xlink:href="#DejaVuSans-31"/>
       <use x="63.623046875" xlink:href="#DejaVuSans-2e"/>
       <use x="95.41015625" xlink:href="#DejaVuSans-30"/>
      </g>
     </g>
    </g>
    <g id="ytick_5">
     <g id="line2d_24">
      <g>
       <use style="stroke:#000000;stroke-width:0.5;" x="73.125" xlink:href="#m728421d6d4" y="44.1"/>
      </g>
     </g>
     <g id="line2d_25">
      <g>
       <use style="stroke:#000000;stroke-width:0.5;" x="526.5" xlink:href="#mcb0005524f" y="44.1"/>
      </g>
     </g>
     <g id="text_13">
      <!-- 1.5 -->
      <g transform="translate(52.4075 47.41125)scale(0.12 -0.12)">
       <use xlink:href="#DejaVuSans-31"/>
       <use x="63.623046875" xlink:href="#DejaVuSans-2e"/>
       <use x="95.41015625" xlink:href="#DejaVuSans-35"/>
      </g>
     </g>
    </g>
   </g>
   <g id="patch_3">
    <path d="
M73.125 44.1
L526.5 44.1" style="fill:none;stroke:#000000;"/>
   </g>
   <g id="patch_4">
    <path d="
M526.5 396.9
L526.5 44.1" style="fill:none;stroke:#000000;"/>
   </g>
   <g id="patch_5">
    <path d="
M73.125 396.9
L526.5 396.9" style="fill:none;stroke:#000000;"/>
   </g>
   <g id="patch_6">
    <path d="
M73.125 396.9
L73.125 44.1" style="fill:none;stroke:#000000;"/>
   </g>
  </g>
 </g>
 <defs>
  <clipPath id="p5873ec822d">
   <rect height="352.8" width="453.375" x="73.125" y="44.1"/>
  </clipPath>
 </defs>
</svg>
